<svg width="1920" height="300" viewBox="0 0 1920 300" fill="none" xmlns="http://www.w3.org/2000/svg">
<g clip-path="url(#clip0_771_2)">
<rect width="1920" height="300" fill="#010409"/>
<rect x="520" y="500" width="500" height="20" transform="rotate(-90 520 500)" fill="#3AF0A4"/>
<rect x="540" y="500" width="500" height="20" transform="rotate(-90 540 500)" fill="#CC43F1"/>
<rect x="40" y="500" width="500" height="20" transform="rotate(-90 40 500)" fill="#3AF0A4"/>
<rect x="60" y="500" width="500" height="20" transform="rotate(-90 60 500)" fill="#CC43F1"/>
<rect x="80" y="500" width="500" height="20" transform="rotate(-90 80 500)" fill="#3AF0A4"/>
<rect x="100" y="500" width="500" height="20" transform="rotate(-90 100 500)" fill="#CC43F1"/>
<rect x="240" y="500" width="500" height="20" transform="rotate(-90 240 500)" fill="#3AF0A4"/>
<rect x="260" y="500" width="500" height="20" transform="rotate(-90 260 500)" fill="#CC43F1"/>
<rect x="280" y="500" width="500" height="20" transform="rotate(-90 280 500)" fill="#3AF0A4"/>
<rect x="300" y="500" width="500" height="20" transform="rotate(-90 300 500)" fill="#CC43F1"/>
<rect x="320" y="500" width="500" height="20" transform="rotate(-90 320 500)" fill="#3AF0A4"/>
<rect x="340" y="500" width="500" height="20" transform="rotate(-90 340 500)" fill="#CC43F1"/>
<rect x="120" y="500" width="500" height="20" transform="rotate(-90 120 500)" fill="#3AF0A4"/>
<rect x="140" y="500" width="500" height="20" transform="rotate(-90 140 500)" fill="#CC43F1"/>
<rect x="160" y="500" width="500" height="20" transform="rotate(-90 160 500)" fill="#3AF0A4"/>
<rect x="180" y="500" width="500" height="20" transform="rotate(-90 180 500)" fill="#CC43F1"/>
<rect x="720" y="500" width="500" height="20" transform="rotate(-90 720 500)" fill="#3AF0A4"/>
<rect x="740" y="500" width="500" height="20" transform="rotate(-90 740 500)" fill="#CC43F1"/>
<rect x="760" y="500" width="500" height="20" transform="rotate(-90 760 500)" fill="#3AF0A4"/>
<rect x="780" y="500" width="500" height="20" transform="rotate(-90 780 500)" fill="#CC43F1"/>
<rect x="800" y="500" width="500" height="20" transform="rotate(-90 800 500)" fill="#3AF0A4"/>
<rect x="820" y="500" width="500" height="20" transform="rotate(-90 820 500)" fill="#CC43F1"/>
<rect x="960" y="500" width="500" height="20" transform="rotate(-90 960 500)" fill="#3AF0A4"/>
<rect x="980" y="500" width="500" height="20" transform="rotate(-90 980 500)" fill="#CC43F1"/>
<rect x="1000" y="500" width="500" height="20" transform="rotate(-90 1000 500)" fill="#3AF0A4"/>
<rect x="1020" y="500" width="500" height="20" transform="rotate(-90 1020 500)" fill="#CC43F1"/>
<rect x="1040" y="500" width="500" height="20" transform="rotate(-90 1040 500)" fill="#3AF0A4"/>
<rect x="1060" y="500" width="500" height="20" transform="rotate(-90 1060 500)" fill="#CC43F1"/>
<rect x="840" y="500" width="500" height="20" transform="rotate(-90 840 500)" fill="#3AF0A4"/>
<rect x="860" y="500" width="500" height="20" transform="rotate(-90 860 500)" fill="#CC43F1"/>
<rect x="880" y="500" width="500" height="20" transform="rotate(-90 880 500)" fill="#3AF0A4"/>
<rect x="900" y="500" width="500" height="20" transform="rotate(-90 900 500)" fill="#CC43F1"/>
<rect x="920" y="500" width="500" height="20" transform="rotate(-90 920 500)" fill="#3AF0A4"/>
<rect x="940" y="500" width="500" height="20" transform="rotate(-90 940 500)" fill="#CC43F1"/>
<rect x="360" y="500" width="500" height="20" transform="rotate(-90 360 500)" fill="#3AF0A4"/>
<rect x="380" y="500" width="500" height="20" transform="rotate(-90 380 500)" fill="#CC43F1"/>
<rect x="400" y="500" width="500" height="20" transform="rotate(-90 400 500)" fill="#3AF0A4"/>
<rect x="420" y="500" width="500" height="20" transform="rotate(-90 420 500)" fill="#CC43F1"/>
<rect x="440" y="500" width="500" height="20" transform="rotate(-90 440 500)" fill="#3AF0A4"/>
<rect x="460" y="500" width="500" height="20" transform="rotate(-90 460 500)" fill="#CC43F1"/>
<rect x="600" y="500" width="500" height="20" transform="rotate(-90 600 500)" fill="#3AF0A4"/>
<rect x="620" y="500" width="500" height="20" transform="rotate(-90 620 500)" fill="#CC43F1"/>
<rect x="680" y="500" width="500" height="20" transform="rotate(-90 680 500)" fill="#3AF0A4"/>
<rect x="700" y="500" width="500" height="20" transform="rotate(-90 700 500)" fill="#CC43F1"/>
<rect x="1160" y="500" width="500" height="20" transform="rotate(-90 1160 500)" fill="#3AF0A4"/>
<rect x="1180" y="500" width="500" height="20" transform="rotate(-90 1180 500)" fill="#CC43F1"/>
<rect x="1200" y="500" width="500" height="20" transform="rotate(-90 1200 500)" fill="#3AF0A4"/>
<rect x="1220" y="500" width="500" height="20" transform="rotate(-90 1220 500)" fill="#CC43F1"/>
<rect x="1400" y="500" width="500" height="20" transform="rotate(-90 1400 500)" fill="#3AF0A4"/>
<rect x="1420" y="500" width="500" height="20" transform="rotate(-90 1420 500)" fill="#CC43F1"/>
<rect x="1440" y="500" width="500" height="20" transform="rotate(-90 1440 500)" fill="#3AF0A4"/>
<rect x="1460" y="500" width="500" height="20" transform="rotate(-90 1460 500)" fill="#CC43F1"/>
<rect x="1480" y="500" width="500" height="20" transform="rotate(-90 1480 500)" fill="#3AF0A4"/>
<rect x="1500" y="500" width="500" height="20" transform="rotate(-90 1500 500)" fill="#CC43F1"/>
<rect x="1280" y="500" width="500" height="20" transform="rotate(-90 1280 500)" fill="#3AF0A4"/>
<rect x="1300" y="500" width="500" height="20" transform="rotate(-90 1300 500)" fill="#CC43F1"/>
<rect x="1320" y="500" width="500" height="20" transform="rotate(-90 1320 500)" fill="#3AF0A4"/>
<rect x="1340" y="500" width="500" height="20" transform="rotate(-90 1340 500)" fill="#CC43F1"/>
<rect x="1360" y="500" width="500" height="20" transform="rotate(-90 1360 500)" fill="#3AF0A4"/>
<rect x="1380" y="500" width="500" height="20" transform="rotate(-90 1380 500)" fill="#CC43F1"/>
<rect x="1800" y="500" width="500" height="20" transform="rotate(-90 1800 500)" fill="#3AF0A4"/>
<rect x="1820" y="500" width="500" height="20" transform="rotate(-90 1820 500)" fill="#CC43F1"/>
<rect x="1840" y="500" width="500" height="20" transform="rotate(-90 1840 500)" fill="#3AF0A4"/>
<rect x="1860" y="500" width="500" height="20" transform="rotate(-90 1860 500)" fill="#CC43F1"/>
<rect x="1720" y="500" width="500" height="20" transform="rotate(-90 1720 500)" fill="#3AF0A4"/>
<rect x="1740" y="500" width="500" height="20" transform="rotate(-90 1740 500)" fill="#CC43F1"/>
<rect x="1760" y="500" width="500" height="20" transform="rotate(-90 1760 500)" fill="#3AF0A4"/>
<rect x="1780" y="500" width="500" height="20" transform="rotate(-90 1780 500)" fill="#CC43F1"/>
<rect x="1600" y="500" width="500" height="20" transform="rotate(-90 1600 500)" fill="#3AF0A4"/>
<rect x="1620" y="500" width="500" height="20" transform="rotate(-90 1620 500)" fill="#CC43F1"/>
<rect x="1640" y="500" width="500" height="20" transform="rotate(-90 1640 500)" fill="#3AF0A4"/>
<rect x="1660" y="500" width="500" height="20" transform="rotate(-90 1660 500)" fill="#CC43F1"/>
<rect x="1520" y="500" width="500" height="20" transform="rotate(-90 1520 500)" fill="#3AF0A4"/>
<rect x="1540" y="500" width="500" height="20" transform="rotate(-90 1540 500)" fill="#CC43F1"/>
<rect x="1560" y="500" width="500" height="20" transform="rotate(-90 1560 500)" fill="#3AF0A4"/>
<rect x="1580" y="500" width="500" height="20" transform="rotate(-90 1580 500)" fill="#CC43F1"/>
<rect x="1080" y="500" width="500" height="20" transform="rotate(-90 1080 500)" fill="#3AF0A4"/>
<rect x="1100" y="500" width="500" height="20" transform="rotate(-90 1100 500)" fill="#CC43F1"/>
<rect x="1120" y="500" width="500" height="20" transform="rotate(-90 1120 500)" fill="#3AF0A4"/>
<rect x="1140" y="500" width="500" height="20" transform="rotate(-90 1140 500)" fill="#CC43F1"/>
<rect x="480" y="500" width="500" height="20" transform="rotate(-90 480 500)" fill="#3AF0A4"/>
<rect x="500" y="500" width="500" height="20" transform="rotate(-90 500 500)" fill="#CC43F1"/>
<rect x="560" y="500" width="500" height="20" transform="rotate(-90 560 500)" fill="#3AF0A4"/>
<rect x="580" y="500" width="500" height="20" transform="rotate(-90 580 500)" fill="#CC43F1"/>
<rect x="-10" y="195" width="1920" height="20" fill="#3AF0A4"/>
<rect x="-10" y="215" width="1920" height="20" fill="#CC43F1"/>
<rect width="1920" height="20" fill="#3AF0A4"/>
<rect y="20" width="1920" height="20" fill="#CC43F1"/>
<rect y="260" width="1920" height="20" fill="#3AF0A4"/>
<rect y="280" width="1920" height="20" fill="#CC43F1"/>
<rect x="200" y="500" width="500" height="20" transform="rotate(-90 200 500)" fill="#3AF0A4"/>
<rect x="220" y="500" width="500" height="20" transform="rotate(-90 220 500)" fill="#CC43F1"/>
<rect x="1680" y="500" width="500" height="20" transform="rotate(-90 1680 500)" fill="#3AF0A4"/>
<rect x="1700" y="500" width="500" height="20" transform="rotate(-90 1700 500)" fill="#CC43F1"/>
<rect y="65" width="1920" height="20" fill="#3AF0A4"/>
<rect y="85" width="1920" height="20" fill="#CC43F1"/>
<rect x="1240" y="500" width="500" height="20" transform="rotate(-90 1240 500)" fill="#3AF0A4"/>
<rect x="1260" y="500" width="500" height="20" transform="rotate(-90 1260 500)" fill="#CC43F1"/>
<rect x="640" y="500" width="500" height="20" transform="rotate(-90 640 500)" fill="#3AF0A4"/>
<rect x="660" y="500" width="500" height="20" transform="rotate(-90 660 500)" fill="#CC43F1"/>
<rect y="500" width="500" height="20" transform="rotate(-90 0 500)" fill="#3AF0A4"/>
<rect x="20" y="500" width="500" height="20" transform="rotate(-90 20 500)" fill="#CC43F1"/>
<rect x="1880" y="500" width="500" height="20" transform="rotate(-90 1880 500)" fill="#3AF0A4"/>
<rect x="1900" y="500" width="500" height="20" transform="rotate(-90 1900 500)" fill="#CC43F1"/>
<rect y="130" width="1920" height="20" fill="#3AF0A4"/>
<rect y="150" width="1920" height="20" fill="#CC43F1"/>
</g>
<defs>
<clipPath id="clip0_771_2">
<rect width="1920" height="300" fill="white"/>
</clipPath>
</defs>
</svg>
