<svg width="192" height="192" viewBox="0 0 192 192" fill="none" xmlns="http://www.w3.org/2000/svg">
<g clip-path="url(#clip0_810_130)">
<path d="M91.4985 91.3614C93.1955 55.7232 94.1006 37.395 83.0698 26.3641C74.5845 17.8788 60.7817 18.2183 52.2965 26.7035C47.4316 31.5684 44.8294 38.2435 45.2254 45.0883C38.3806 44.6923 31.7055 47.2945 26.5012 52.4988C18.0159 60.9841 18.3553 74.7868 26.8406 83.2721C37.5321 93.9635 55.8603 93.0584 91.4985 91.3614ZM91.4985 100.639C55.8603 98.9416 37.5321 98.0365 26.5012 109.067C18.0159 117.553 18.3553 131.355 26.8406 139.841C31.7055 144.706 38.3806 147.308 45.2254 146.912C44.8294 153.756 47.4316 160.432 52.6359 165.636C61.1212 174.121 74.9239 173.782 83.4092 165.296C94.1006 154.605 93.1955 136.277 91.4985 100.639ZM100.832 91.3048C136.414 93.0584 154.742 93.9635 165.773 82.9327C174.258 74.4474 173.919 60.6447 165.434 52.1594C160.569 47.2945 153.894 44.6923 147.049 45.0883C147.445 38.2435 144.843 31.5684 139.638 26.3641C131.153 17.8788 117.35 18.2183 108.865 26.7035C98.1736 37.395 99.0787 55.7232 100.832 91.3048ZM100.776 100.639C99.0786 136.277 98.1735 154.605 109.204 165.636C117.69 174.121 131.492 173.782 139.978 165.296C144.843 160.432 147.445 153.756 147.049 146.912C153.894 147.308 160.569 144.706 165.773 139.501C174.258 131.016 173.919 117.213 165.434 108.728C154.742 98.0365 136.414 98.9416 100.776 100.639Z" fill="white"/>
</g>
<defs>
<clipPath id="clip0_810_130">
<rect width="192" height="192" fill="white"/>
</clipPath>
</defs>
</svg>