<svg width="512" height="512" viewBox="0 0 512 512" fill="none" xmlns="http://www.w3.org/2000/svg">
<g clip-path="url(#clip0_810_129)">
<path d="M244.246 244.403C248.489 155.308 250.752 109.487 223.174 81.9103C201.961 60.6971 167.454 61.5456 146.241 82.7588C134.079 94.9211 127.574 111.609 128.563 128.721C111.452 127.731 94.7638 134.236 81.753 147.247C60.5398 168.46 61.3883 202.967 82.6015 224.18C109.33 250.909 155.151 248.646 244.246 244.403ZM244.246 267.597C155.151 263.354 109.33 261.091 81.753 288.668C60.5398 309.882 61.3883 344.388 82.6015 365.602C94.7638 377.764 111.452 384.269 128.563 383.279C127.574 400.391 134.079 417.079 147.09 430.09C168.303 451.303 202.81 450.454 224.023 429.241C250.752 402.513 248.489 356.692 244.246 267.597ZM267.581 244.262C356.535 248.646 402.355 250.909 429.932 223.332C451.146 202.118 450.297 167.612 429.084 146.398C416.922 134.236 400.234 127.731 383.122 128.721C384.112 111.609 377.606 94.9211 364.596 81.9103C343.383 60.6971 308.876 61.5456 287.663 82.7588C260.934 109.487 263.197 155.308 267.581 244.262ZM267.439 267.597C263.197 356.692 260.934 402.513 288.511 430.09C309.724 451.303 344.231 450.454 365.444 429.241C377.606 417.079 384.112 400.391 383.122 383.279C400.234 384.269 416.922 377.764 429.932 364.753C451.146 343.54 450.297 309.033 429.084 287.82C402.355 261.091 356.535 263.354 267.439 267.597Z" fill="white"/>
</g>
<defs>
<clipPath id="clip0_810_129">
<rect width="512" height="512" fill="white"/>
</clipPath>
</defs>
</svg>